<svg width="35" height="35" viewBox="0 0 35 35" fill="none" xmlns="http://www.w3.org/2000/svg">
<g id="&#236;&#131;&#129;&#235;&#139;&#168;_&#236;&#149;&#132;&#236;&#157;&#180;&#236;&#189;&#152;">
<path id="Vector" d="M17.5681 10.583V14.8997" stroke="#F07A0C" stroke-width="1.81034" stroke-miterlimit="10" stroke-linecap="round"/>
<path id="Vector_2" d="M17.594 4.82758C12.8237 4.82758 8.96069 8.69054 8.96069 13.4609V16.1831C8.96069 17.0646 8.59773 18.3868 8.14402 19.1387L6.49773 21.8868C5.48662 23.585 6.18662 25.4776 8.05328 26.0998C14.2496 28.1609 20.9514 28.1609 27.1477 26.0998C28.8977 25.5165 29.6496 23.4683 28.7033 21.8868L27.057 19.1387C26.6033 18.3868 26.2403 17.0517 26.2403 16.1831V13.4609C26.2274 8.71646 22.3385 4.82758 17.594 4.82758Z" stroke="#F07A0C" stroke-width="1.81034" stroke-miterlimit="10" stroke-linecap="round"/>
<path id="Vector_3" d="M21.8847 26.6313C21.8847 29.0035 19.9403 30.948 17.5681 30.948C16.3884 30.948 15.2996 30.4554 14.5218 29.6776C13.744 28.8998 13.2514 27.8109 13.2514 26.6313" stroke="#F07A0C" stroke-width="1.81034" stroke-miterlimit="10"/>
</g>
</svg>
