<svg width="864" height="945" viewBox="0 0 864 945" fill="none" xmlns="http://www.w3.org/2000/svg">
<g clip-path="url(#clip0_72_1661)">
<rect width="864" height="945" fill="#F07A0C"/>
<circle cx="96.5" cy="108.5" r="248.5" fill="white" fill-opacity="0.1"/>
<circle cx="96.5" cy="108.5" r="323.5" fill="white" fill-opacity="0.1"/>
<circle cx="96" cy="109" r="203" fill="white" fill-opacity="0.1"/>
<circle cx="96.5" cy="108.5" r="172.5" fill="white" fill-opacity="0.1"/>
<path d="M271.494 441.827C277.05 441.827 281.715 442.575 285.49 444.07C289.264 445.495 292.291 447.275 294.571 449.412C296.921 451.549 298.559 453.864 299.485 456.356C300.482 458.849 300.981 461.093 300.981 463.087V465.117C300.981 466.897 300.589 468.856 299.805 470.993C299.093 473.129 297.882 475.195 296.173 477.189C294.464 479.183 292.185 480.964 289.336 482.531C286.558 484.098 283.139 485.202 279.08 485.843L278.652 503.15H292.007C293.502 503.15 294.962 502.687 296.387 501.761L299.378 499.624C300.803 498.627 302.334 497.986 303.972 497.701C305.681 497.417 307.32 497.452 308.886 497.808C310.525 498.164 312.02 498.841 313.373 499.838C314.798 500.835 315.938 502.117 316.792 503.684L319.997 509.56H226.41V503.15H261.025L260.704 486.163C256.146 485.665 252.3 484.668 249.166 483.172C246.103 481.605 243.61 479.789 241.687 477.723C239.764 475.658 238.376 473.521 237.521 471.313C236.737 469.034 236.346 466.969 236.346 465.117V463.087C236.346 461.093 236.844 458.849 237.841 456.356C238.839 453.864 240.477 451.549 242.756 449.412C245.035 447.275 248.062 445.495 251.837 444.07C255.683 442.575 260.383 441.827 265.939 441.827H271.494ZM275.447 478.044C278.082 476.975 280.255 475.195 281.964 472.702C283.673 470.138 284.528 467.289 284.528 464.155C284.528 460.95 283.673 458.066 281.964 455.502C280.255 452.938 278.082 451.157 275.447 450.16C274.664 449.804 273.56 449.519 272.135 449.305C270.711 449.02 269.571 448.878 268.717 448.878C267.862 448.878 266.722 449.02 265.298 449.305C263.945 449.519 262.876 449.804 262.093 450.16C259.386 451.157 257.178 452.973 255.469 455.609C253.831 458.173 253.012 461.022 253.012 464.155C253.012 467.289 253.831 470.138 255.469 472.702C257.178 475.195 259.386 476.975 262.093 478.044C262.876 478.4 263.945 478.685 265.298 478.899C266.722 479.112 267.862 479.219 268.717 479.219C269.571 479.219 270.711 479.112 272.135 478.899C273.56 478.685 274.664 478.4 275.447 478.044ZM406.391 523.769H356.499L349.448 524.41C347.382 524.553 345.602 523.912 344.106 522.487C342.61 521.134 341.827 519.424 341.756 517.359L340.26 499.731L355.858 501.12L382.353 501.334V493.001H341.969V486.591H374.981C375.765 486.591 376.584 486.448 377.438 486.163C378.364 485.807 379.219 485.131 380.002 484.133L400.942 487.445L399.66 501.761L400.194 507.637H355.858V517.359H378.4C380.109 517.359 381.569 516.896 382.78 515.97L385.771 513.94C387.196 512.943 388.727 512.302 390.365 512.017C392.075 511.661 393.713 511.697 395.28 512.124C396.918 512.48 398.414 513.157 399.767 514.154C401.12 515.08 402.224 516.326 403.079 517.893L406.391 523.769ZM401.369 462.232L352.653 462.446L345.602 462.98C343.536 463.123 341.756 462.517 340.26 461.164C338.764 459.811 337.981 458.101 337.91 456.036L336.414 435.63L355.43 437.019V455.609L399.98 456.463L401.369 462.232ZM398.805 468.642C400.23 467.645 401.761 467.004 403.399 466.719C405.109 466.434 406.747 466.47 408.314 466.826C409.952 467.182 411.447 467.859 412.801 468.856C414.225 469.853 415.365 471.135 416.219 472.702L419.424 478.578H325.837V472.168H391.434C392.929 472.168 394.389 471.705 395.814 470.779L398.805 468.642ZM491.609 492.253L492.998 498.77L427.401 504.753L425.264 496.954L491.609 492.253ZM492.143 428.259L515.433 434.562L514.365 459.027V520.137L496.416 523.555V434.989L492.143 428.259ZM459.772 439.049C463.974 439.049 467.464 439.69 470.242 440.972C473.091 442.254 475.37 443.857 477.079 445.78C478.789 447.703 479.999 449.804 480.712 452.083C481.424 454.291 481.78 456.356 481.78 458.279V462.232C481.78 464.155 481.424 466.256 480.712 468.536C479.999 470.815 478.789 472.916 477.079 474.839C475.37 476.762 473.091 478.364 470.242 479.646C467.464 480.928 463.974 481.569 459.772 481.569H455.392C451.19 481.569 447.664 480.928 444.815 479.646C441.966 478.364 439.687 476.762 437.978 474.839C436.268 472.916 435.022 470.815 434.239 468.536C433.526 466.256 433.17 464.155 433.17 462.232V458.279C433.17 456.356 433.526 454.291 434.239 452.083C435.022 449.804 436.268 447.703 437.978 445.78C439.687 443.857 441.966 442.254 444.815 440.972C447.664 439.69 451.19 439.049 455.392 439.049H459.772ZM460.627 473.877C461.837 472.88 462.977 471.171 464.045 468.749C465.114 466.256 465.648 463.479 465.648 460.416C465.648 457.211 465.114 454.398 464.045 451.976C462.977 449.483 461.837 447.738 460.627 446.741C459.772 446.172 458.775 445.887 457.635 445.887C456.496 445.887 455.499 446.172 454.644 446.741C453.433 447.738 452.294 449.483 451.225 451.976C450.157 454.398 449.623 457.211 449.623 460.416C449.623 463.479 450.157 466.256 451.225 468.749C452.294 471.171 453.433 472.88 454.644 473.877C455.143 474.162 455.641 474.411 456.14 474.625C456.638 474.768 457.137 474.839 457.635 474.839C458.134 474.839 458.632 474.768 459.131 474.625C459.63 474.411 460.128 474.162 460.627 473.877ZM636.572 520.564L618.517 523.983V435.524L614.243 428.686L637.64 435.096L636.572 459.455V520.564ZM607.406 498.983C606.409 499.981 605.305 500.728 604.094 501.227C602.883 501.726 601.637 501.975 600.355 501.975C599.073 501.975 597.826 501.726 596.616 501.227C595.405 500.728 594.301 499.981 593.304 498.983C592.663 498.342 591.879 497.203 590.953 495.565C590.099 493.927 589.208 492.11 588.282 490.116C587.357 488.051 586.431 485.95 585.505 483.813C584.65 481.676 583.902 479.753 583.261 478.044C581.837 481.178 580.199 483.92 578.347 486.27C576.495 488.549 574.572 490.543 572.578 492.253C570.583 493.962 568.518 495.387 566.381 496.526C564.316 497.595 562.322 498.449 560.399 499.09C555.84 500.728 551.14 501.512 546.296 501.441C549.573 500.016 552.422 498.129 554.843 495.778C557.265 493.428 559.33 490.828 561.04 487.979C562.82 485.131 564.28 482.139 565.42 479.005C566.559 475.8 567.485 472.666 568.197 469.604C569.836 462.41 570.583 454.683 570.441 446.421L566.061 440.972L588.817 444.925C588.959 451.05 588.674 456.534 587.962 461.378C587.25 466.15 586.217 470.423 584.864 474.198C586.431 474.839 588.354 475.622 590.633 476.548C592.912 477.403 595.155 478.364 597.363 479.433C599.642 480.43 601.708 481.427 603.56 482.424C605.412 483.35 606.694 484.169 607.406 484.881C608.403 485.878 609.151 486.982 609.649 488.193C610.148 489.404 610.397 490.65 610.397 491.932C610.397 493.214 610.148 494.496 609.649 495.778C609.151 496.989 608.403 498.058 607.406 498.983Z" fill="white"/>
<circle cx="864" cy="945" r="120.601" fill="white" fill-opacity="0.1"/>
<circle cx="864" cy="945" r="157" fill="white" fill-opacity="0.1"/>
</g>
<defs>
<clipPath id="clip0_72_1661">
<rect width="864" height="945" fill="white"/>
</clipPath>
</defs>
</svg>
