<svg width="34" height="34" viewBox="0 0 34 34" fill="none" xmlns="http://www.w3.org/2000/svg">
<g id="ellipsis-vertical-sharp">
<path id="Vector" d="M16.8161 19.4556C18.1726 19.4556 19.2722 18.356 19.2722 16.9995C19.2722 15.6431 18.1726 14.5435 16.8161 14.5435C15.4597 14.5435 14.36 15.6431 14.36 16.9995C14.36 18.356 15.4597 19.4556 16.8161 19.4556Z" fill="#747474"/>
<path id="Vector_2" d="M16.8161 29.6895C18.1726 29.6895 19.2722 28.5899 19.2722 27.2334C19.2722 25.877 18.1726 24.7773 16.8161 24.7773C15.4597 24.7773 14.36 25.877 14.36 27.2334C14.36 28.5899 15.4597 29.6895 16.8161 29.6895Z" fill="#747474"/>
<path id="Vector_3" d="M16.8161 9.22224C18.1726 9.22224 19.2722 8.12261 19.2722 6.76615C19.2722 5.40969 18.1726 4.31006 16.8161 4.31006C15.4597 4.31006 14.36 5.40969 14.36 6.76615C14.36 8.12261 15.4597 9.22224 16.8161 9.22224Z" fill="#747474"/>
</g>
</svg>
