<svg width="50" height="50" viewBox="0 0 50 50" fill="none" xmlns="http://www.w3.org/2000/svg">
<path d="M21.8545 4.646L11.4587 8.54182C9.06282 9.43765 7.10449 12.271 7.10449 14.8335V30.3126C7.10449 32.7709 8.72952 36.0001 10.7087 37.4793L19.667 44.1668C22.6045 46.3752 27.4378 46.3752 30.3753 44.1668L39.3337 37.4793C41.3128 36.0001 42.9378 32.7709 42.9378 30.3126V14.8335C42.9378 12.271 40.9795 9.43765 38.5836 8.54182L28.1878 4.646C26.417 4.00016 23.5836 4.00016 21.8545 4.646Z" stroke="#7E7D7D" stroke-width="3.125" stroke-linecap="round" stroke-linejoin="round"/>
<path d="M25.0002 22.75C24.9168 22.75 24.8127 22.75 24.7293 22.75C22.771 22.6875 21.2085 21.0625 21.2085 19.0833C21.2085 17.0625 22.8543 15.4166 24.8752 15.4166C26.896 15.4166 28.5419 17.0625 28.5419 19.0833C28.521 21.0833 26.9585 22.6875 25.0002 22.75Z" stroke="#7E7D7D" stroke-width="3.125" stroke-linecap="round" stroke-linejoin="round"/>
<path d="M20.854 28.5835C18.854 29.9168 18.854 32.1043 20.854 33.4376C23.1248 34.9585 26.854 34.9585 29.1248 33.4376C31.1248 32.1043 31.1248 29.9168 29.1248 28.5835C26.8748 27.0627 23.1457 27.0627 20.854 28.5835Z" stroke="#7E7D7D" stroke-width="3.125" stroke-linecap="round" stroke-linejoin="round"/>
</svg>
