<svg width="35" height="35" viewBox="0 0 35 35" fill="none" xmlns="http://www.w3.org/2000/svg">
<g id="&#236;&#131;&#129;&#235;&#139;&#168;_&#236;&#149;&#132;&#236;&#157;&#180;&#236;&#189;&#152;">
<path id="Vector" d="M17.5681 10.583V14.8997" stroke="#F07A0C" stroke-width="1.81034" stroke-miterlimit="10" stroke-linecap="round"/>
<path id="Vector_2" d="M17.594 4.82758C12.8236 4.82758 8.96063 8.69054 8.96063 13.4609V16.1831C8.96063 17.0646 8.59767 18.3868 8.14396 19.1387L6.49767 21.8868C5.48656 23.585 6.18656 25.4776 8.05322 26.0998C14.2495 28.1609 20.9514 28.1609 27.1477 26.0998C28.8977 25.5165 29.6495 23.4683 28.7032 21.8868L27.0569 19.1387C26.6032 18.3868 26.2403 17.0517 26.2403 16.1831V13.4609C26.2273 8.71646 22.3384 4.82758 17.594 4.82758Z" stroke="#F07A0C" stroke-width="1.81034" stroke-miterlimit="10" stroke-linecap="round"/>
<path id="Vector_3" d="M21.8848 26.6313C21.8848 29.0035 19.9404 30.948 17.5681 30.948C16.3885 30.948 15.2996 30.4554 14.5218 29.6776C13.7441 28.8998 13.2515 27.8109 13.2515 26.6313" stroke="#F07A0C" stroke-width="1.81034" stroke-miterlimit="10"/>
</g>
</svg>
