<svg width="125" height="29" viewBox="0 0 125 29" fill="none" xmlns="http://www.w3.org/2000/svg">
<path d="M14.424 4.184C16.088 4.184 17.4853 4.408 18.616 4.856C19.7467 5.28267 20.6533 5.816 21.336 6.456C22.04 7.096 22.5307 7.78933 22.808 8.536C23.1067 9.28267 23.256 9.95467 23.256 10.552V11.16C23.256 11.6933 23.1387 12.28 22.904 12.92C22.6907 13.56 22.328 14.1787 21.816 14.776C21.304 15.3733 20.6213 15.9067 19.768 16.376C18.936 16.8453 17.912 17.176 16.696 17.368L16.568 22.552H20.568C21.016 22.552 21.4533 22.4133 21.88 22.136L22.776 21.496C23.2027 21.1973 23.6613 21.0053 24.152 20.92C24.664 20.8347 25.1547 20.8453 25.624 20.952C26.1147 21.0587 26.5627 21.2613 26.968 21.56C27.3947 21.8587 27.736 22.2427 27.992 22.712L28.952 24.472H0.92V22.552H11.288L11.192 17.464C9.82667 17.3147 8.67467 17.016 7.736 16.568C6.81867 16.0987 6.072 15.5547 5.496 14.936C4.92 14.3173 4.504 13.6773 4.248 13.016C4.01333 12.3333 3.896 11.7147 3.896 11.16V10.552C3.896 9.95467 4.04533 9.28267 4.344 8.536C4.64267 7.78933 5.13333 7.096 5.816 6.456C6.49867 5.816 7.40533 5.28267 8.536 4.856C9.688 4.408 11.096 4.184 12.76 4.184H14.424ZM15.608 15.032C16.3973 14.712 17.048 14.1787 17.56 13.432C18.072 12.664 18.328 11.8107 18.328 10.872C18.328 9.912 18.072 9.048 17.56 8.28C17.048 7.512 16.3973 6.97867 15.608 6.68C15.3733 6.57333 15.0427 6.488 14.616 6.424C14.1893 6.33867 13.848 6.296 13.592 6.296C13.336 6.296 12.9947 6.33867 12.568 6.424C12.1627 6.488 11.8427 6.57333 11.608 6.68C10.7973 6.97867 10.136 7.52267 9.624 8.312C9.13333 9.08 8.888 9.93333 8.888 10.872C8.888 11.8107 9.13333 12.664 9.624 13.432C10.136 14.1787 10.7973 14.712 11.608 15.032C11.8427 15.1387 12.1627 15.224 12.568 15.288C12.9947 15.352 13.336 15.384 13.592 15.384C13.848 15.384 14.1893 15.352 14.616 15.288C15.0427 15.224 15.3733 15.1387 15.608 15.032ZM54.8293 28.728H39.8853L37.7733 28.92C37.1546 28.9627 36.6213 28.7707 36.1733 28.344C35.7253 27.9387 35.4906 27.4267 35.4693 26.808L35.0213 21.528L39.6933 21.944L47.6293 22.008V19.512H35.5333V17.592H45.4213C45.6559 17.592 45.9013 17.5493 46.1573 17.464C46.4346 17.3573 46.6906 17.1547 46.9253 16.856L53.1973 17.848L52.8133 22.136L52.9733 23.896H39.6933V26.808H46.4453C46.9573 26.808 47.3946 26.6693 47.7573 26.392L48.6533 25.784C49.0799 25.4853 49.5386 25.2933 50.0293 25.208C50.5413 25.1013 51.0319 25.112 51.5013 25.24C51.9919 25.3467 52.4399 25.5493 52.8453 25.848C53.2506 26.1253 53.5813 26.4987 53.8373 26.968L54.8293 28.728ZM53.3253 10.296L38.7333 10.36L36.6213 10.52C36.0026 10.5627 35.4693 10.3813 35.0213 9.976C34.5733 9.57067 34.3386 9.05867 34.3173 8.44L33.8693 2.328L39.5653 2.744V8.312L52.9093 8.568L53.3253 10.296ZM52.5573 12.216C52.9839 11.9173 53.4426 11.7253 53.9333 11.64C54.4453 11.5547 54.9359 11.5653 55.4053 11.672C55.8959 11.7787 56.3439 11.9813 56.7493 12.28C57.1759 12.5787 57.5173 12.9627 57.7733 13.432L58.7333 15.192H30.7013V13.272H50.3493C50.7973 13.272 51.2346 13.1333 51.6613 12.856L52.5573 12.216ZM80.3545 19.288L80.7705 21.24L61.1225 23.032L60.4825 20.696L80.3545 19.288ZM80.5145 0.119999L87.4905 2.008L87.1705 9.336V27.64L81.7945 28.664V2.136L80.5145 0.119999ZM70.8185 3.352C72.0772 3.352 73.1225 3.544 73.9545 3.928C74.8078 4.312 75.4905 4.792 76.0025 5.368C76.5145 5.944 76.8772 6.57333 77.0905 7.256C77.3038 7.91733 77.4105 8.536 77.4105 9.112V10.296C77.4105 10.872 77.3038 11.5013 77.0905 12.184C76.8772 12.8667 76.5145 13.496 76.0025 14.072C75.4905 14.648 74.8078 15.128 73.9545 15.512C73.1225 15.896 72.0772 16.088 70.8185 16.088H69.5065C68.2478 16.088 67.1918 15.896 66.3385 15.512C65.4852 15.128 64.8025 14.648 64.2905 14.072C63.7785 13.496 63.4052 12.8667 63.1705 12.184C62.9572 11.5013 62.8505 10.872 62.8505 10.296V9.112C62.8505 8.536 62.9572 7.91733 63.1705 7.256C63.4052 6.57333 63.7785 5.944 64.2905 5.368C64.8025 4.792 65.4852 4.312 66.3385 3.928C67.1918 3.544 68.2478 3.352 69.5065 3.352H70.8185ZM71.0745 13.784C71.4372 13.4853 71.7785 12.9733 72.0985 12.248C72.4185 11.5013 72.5785 10.6693 72.5785 9.752C72.5785 8.792 72.4185 7.94933 72.0985 7.224C71.7785 6.47733 71.4372 5.95466 71.0745 5.656C70.8185 5.48533 70.5198 5.4 70.1785 5.4C69.8372 5.4 69.5385 5.48533 69.2825 5.656C68.9198 5.95466 68.5785 6.47733 68.2585 7.224C67.9385 7.94933 67.7785 8.792 67.7785 9.752C67.7785 10.6693 67.9385 11.5013 68.2585 12.248C68.5785 12.9733 68.9198 13.4853 69.2825 13.784C69.4318 13.8693 69.5812 13.944 69.7305 14.008C69.8798 14.0507 70.0292 14.072 70.1785 14.072C70.3278 14.072 70.4772 14.0507 70.6265 14.008C70.7758 13.944 70.9252 13.8693 71.0745 13.784ZM123.775 27.768L118.367 28.792V2.296L117.087 0.247999L124.095 2.168L123.775 9.464V27.768ZM115.039 21.304C114.74 21.6027 114.41 21.8267 114.047 21.976C113.684 22.1253 113.311 22.2 112.927 22.2C112.543 22.2 112.17 22.1253 111.807 21.976C111.444 21.8267 111.114 21.6027 110.815 21.304C110.623 21.112 110.388 20.7707 110.111 20.28C109.855 19.7893 109.588 19.2453 109.311 18.648C109.034 18.0293 108.756 17.4 108.479 16.76C108.223 16.12 107.999 15.544 107.807 15.032C107.38 15.9707 106.89 16.792 106.335 17.496C105.78 18.1787 105.204 18.776 104.607 19.288C104.01 19.8 103.391 20.2267 102.751 20.568C102.132 20.888 101.535 21.144 100.959 21.336C99.5937 21.8267 98.1857 22.0613 96.735 22.04C97.7163 21.6133 98.5697 21.048 99.295 20.344C100.02 19.64 100.639 18.8613 101.151 18.008C101.684 17.1547 102.122 16.2587 102.463 15.32C102.804 14.36 103.082 13.4213 103.295 12.504C103.786 10.3493 104.01 8.03467 103.967 5.56L102.655 3.928L109.471 5.112C109.514 6.94667 109.428 8.58933 109.215 10.04C109.002 11.4693 108.692 12.7493 108.287 13.88C108.756 14.072 109.332 14.3067 110.015 14.584C110.698 14.84 111.37 15.128 112.031 15.448C112.714 15.7467 113.332 16.0453 113.887 16.344C114.442 16.6213 114.826 16.8667 115.039 17.08C115.338 17.3787 115.562 17.7093 115.711 18.072C115.86 18.4347 115.935 18.808 115.935 19.192C115.935 19.576 115.86 19.96 115.711 20.344C115.562 20.7067 115.338 21.0267 115.039 21.304Z" fill="#F07A0C"/>
</svg>
